<svg xmlns="http://www.w3.org/2000/svg" preserveAspectRatio="xMidYMid" width="217.22" height="294" viewBox="0 0 217.22 294"><defs><style>.cls-1{fill:#e2e2e2;fill-rule:evenodd}</style></defs><path d="M123.382 292.097c-4.259-.005-2 .224-2.903.356-5.083.064-2.352-.169-4.082-.286-3.174.06-5.607.27-7.974.262-.176-.038-.636-.051-.097-.099-3.355.182-9.959.009-13.868.237a3.82 3.82 0 0 1-.51-.056c.633.114.73.231.6.314-1.908.003-3.542.144-4.26-.006 1.17.005 1.267-.056 1.815-.102l-2 .065c-1.801-.215 2.73-.074 2.73-.234-3.9.07-8.445.249-11.434.188-.625-.21 6.989-.071 3.001-.258l4.624.08c-3.533-.332 2.81.024-.437-.332-6.085-.061-6.807.107-12.877.046-1.366.117.452.172-.915.29-8.628.21-6.791-.528-13.135-.249-1.642.14-2.278.407-6.795.266l1.54-.238c-5.892-.023-3.363.342-9.534.182 1.097-.094 4.631-.079 3.74-.107-3.998-.188-2.828.135-5.901.135l-.636-.211-20.13.224c.385-.063 1.575-.129-.05-.193-3.645.044-7.493.047-11.348.026l-5.763-.047-2.838-.031-1.4-.018c-.315-.003-.258-.006-.327-.009l-.132-.01.018-.195a2698.05 2698.05 0 0 1 .054-2.834l-.209-2.799c.002-.651.094-1.208.135-.503.079-2.855-.133-.148-.216-1.52-.014-1.624.121-2.146.184-1.116-.178-5.039-.383-14.354-.159-19.662l.062 1.035c.086-4.134-.429-4.666-.234-8.5l.037.736c.091-8.973-.101-18.888.216-25.733-.302-1.302.135-8.881-.287-9.458.209-5.123.284-3.655.425-10.871.019-1.926-.263-2.872-.307-5.255l.22-.058-.231-3.234.263-1.722-.056-2.234c-.013.89-.099 1.892-.162 1.757-.05-1.746-.012-3.873.053-5.575.065-1.701.156-2.977.213-3.02l-.187-8.258c.089.184.119 1.566.176 2.659-.225-4.408.232-.801.026-4.84-.05.542-.131-.292-.176-.384.133-2.013.135-6.597.078-9.988l.152.65c.039-6.124-.072-12.911-.07-19.787-.07 2.466-.334 1.9-.359-.116l.233-.806c-.144-1.302-.088 2.106-.264-.566.027-2.568.264-1.727.34-.253l-.08-3.122c.069-.182.106.549.194.74-.144-1.281.234-5.389-.017-7.237l.069-.176-.089-15.586c-.202-.111-.157-2.299-.319-3.967.064-4.113.222-8.679.205-13.636-.1-3.483-.171-1.018-.29-2.584.183-.255.166-5.207.297-2.639-.029-5.949-.036-7.598-.185-15.122-.074.817-.107 1.735-.169 1.26-.031-1.366.076-3.107.164-2.911l.019.361c-.275-8.446.534-19.492.152-26.217l.019.377-.199-6.974c.032-3.208.138 1.925.251-.449-.306-7.523.044-11.886-.159-18.081.539-4.795-.038-17.016.306-23.489l-.127.374c-.125-1.673.073-2.023.102-3.257-.099.176-.114 1.815-.183.776l-.039-6.765 9.575.033 10.505.083 20.983.179c6.13.029 3.479-.57 11.206-.307l-2.194.204c12.37-.245 25.293.009 37.402-.199-.721.047-.742.108-1.924.107 1.279.075 3.643.077 5.694.045 1.025-.017 1.972-.041 2.665-.069.693-.028 1.132-.06 1.143-.09 1.886.014.437.11 1.598.172 2.566.088 6.44-.19 7.804-.042.231.023-.721.048-1.191.06 1.672-.072 7.79.018 6.188-.154 4.546.082 8.695-.075 12.32.026 2.364-.192 7.78.091 8.531-.179-.326.28 7.967.226 10.841.094-.962.085 2.499.088 1.372.205 3.279-.004 6.285-.056 5.713-.199 6.042.334 12.144-.271 15.546.159 9.741-.151 18.756-.252 27.519-.318-.316.279-9.687.028-9.311.321 8.314-.115 13.109-.356 21.352-.287 2.135.037-1.211.12-1.932.168 2.206-.03 4.373-.043 6.503-.048l5.511-.001.013 4.012c.013 1.539.035 3.059.076 4.56-.03-.018-.062-.709-.087-1.362.011 1.263-.047 2.936.099 2.794l-.04-1.231c.213-2.016.444 5.014.557 5.24-.42-2.143-.106 6.328-.636 2.924.028.831.097 1.874.195 1.682-.028 1.234-.086 1.625-.197.375.079 4.522.235 2.916.232 7.013-.071-.015-.098-.842-.182-1.265.138 2.074.276 4.158.217 7.621-.043-.208-.098.193-.098-.839.022 5.947.369 10.136.235 16.66-.308-1.925-.102 2.219-.368 2.564l.08 3.509.129-1.408c-.005 3.073.19 5.788.102 8.43l-.109-2.283.05 5.758.101-3.259c.138 3.109.338-.334.263 3.757-.027-.831-.003 3.074-.16 4.676l-.001-.01c.085 1.52.175 3.083.108 5.355-.085.591-.295-.474-.351-.09.223 1.5.062 7.197.299 9.096-.056-.633-.196-.666-.224-.459l.181 1.26c-.058 1.423-.086 1.631-.198 1.4-.033 4.282.338-1.36.193 3.722-.015-.399-.042-.209-.07-1.039-.076 5.104.116 9.861.026 14.551-.268 1.384-.066-4.098-.292-2.514.049 6.763.322 14.003.259 20.547l.029-1.22c.379.907-.187 4.874-.009 8.184-.028-.811-.21-1.063-.167-.845-.062 4.482.093 9.163.212 15.953l-.098-.841c-.087 2.641-.049 6.955-.094 9.808.097.847.082 2.479.223 1.487-.554 8.796.297 16.779-.165 24.584-.001-.934-.085-2.224-.086-1.482l.091 6.648c.165-.526.1-.872.228-2.269.098.842.174 2.719.174 4.365-.109-2.989-.265.027-.358 1.318.051-.216.107.226.158.117-.293 3.473.333.582.135 5.323l-.087-.251c.044 1.774.159 3.41.134 5.323-.191.794-.089-1.889-.246-2.011.011 2.688.362 5.304.171 7.736l-.107-3.925c-.224 2.65-.167 2.958-.202 4.925l.005-.194-.102 4.551.061-1.159c.497 3.363.091 6.849.417 11.38-.309-4.404-.179-.728-.395-1.066-.06 1.157-.127 2.916-.188 2.415.175 2.141-.138 3.575.118 6.598-.07.134-.007 2.289-.182 1.806.054 2.786.121-.657.208-.423.238 4.291-.288 10.087.038 16.26.135 5.323.37 6.307.487 11.247-.112 1.668-.254-1.365-.254-1.365-.103 2.69-.084 4.713-.004 7.247-.061-.513-.112.016-.19.789.018 2.033.253 1.36.151 4.043-.078-.461-.202-1.052-.28-2.033l.257 7.246c-.122.658-.184-1.498-.264-2.372.055 2.789.11 7.225.302 8.087l.069-1.789c.009 1.017-.165.523-.2-.227-.151-2.39.067-3.447.136-3.583l.045 1.768c.409-1.815-.065-7.097-.042-10.655l.297 1.482-.246-3.648c.077-.776.243-1.307.288.45.146-2.55-.106-2.258.058-4.449.025-.241.04-.132.051.092l-.089-2.492c.063.489.21-.414.168 1.116.171-4.472-.223-7.211.002-8.895l.018.373c-.1-6.205-.218-.599-.474-5.254l.538-3.133-.218-.61c.008-.64.024-1.906.111-1.672-.149-2.382-.094.406-.236-.977.199-3.081-.092-8.496.255-9.19-.166-1.107-.128 2.947-.243-.343.374-.938-.064-3.803.108-6.618.192.864.09 3.532.262.715-.326-1.699.072-5.482.009-7.857-.259-.111-.108-5.161-.195-9.146.088.252.143-7.497.237-11.203l.044.109c-.263-.718-.213-4.541-.268-7.324.157.108.219.61.29 2.117l-.002-2.617c-.084-.617-.128-1.434-.158-3.131l.196.659c-.011-3.483-.231-7.015-.1-11.497-.183-.251-.509 3.565-.632-1.174.1-.177.269-.351.309.889-.013-.406-.082-1.448-.04-2.267l.167 1.893c.072-2.041-.139-1.067-.124-2.699.141.032.101-1.207.213-.974.013.417-.058 1.424-.003 2.049.025-1.84.109-4.065.215-4.8-.08.161-.189 0-.208-1.348-.01-3.483.17-1.192.243-3.223-.098-.843.003-3.066-.208-3.124.001-1.019.1-1.208.157-1.602-.093-1.802-.027-8.42-.251-6.388l-.015.462a45.212 45.212 0 0 1-.009-.295v.016-.016c-.21-5.908.119-12.273.029-18.136l.071.009c-.081-3.5-.048-7.789-.2-10.288 0-1.035.129-2.442.213-2-.053-2.676-.132-2.975-.016-6.84.123 2.69.109-.927.09 2.757.061-3.476.174-4.264-.019-7.996.181 1.271.228-2.616.174-4.27l-.129 2.437c-.027-1.858-.011-3.482.005-5.133l.237.892c.289-7.113-.492-12.828-.008-18.243-.166-1.881-.117 3.864-.311 2.18.032-3.27.373-6.68.374-7.705.131-4.481-.347-4.181-.257-8.872-.085.6-.311 1.166-.391-2.338.031-3.275.355-4.025.423-1.958.007.785-.02 1.165-.048 1.131.03 1.057.067 2.446.159 1.15l-.085-.426c.086-1.624.078-6.129.216-5.072-.08-2.472-.138-1.057-.183.776.123-4.2.004-6.561.087-10.884-.047.687-.147 1.32-.146.636.105-6.34-.161-2.791-.198-7.088.13-2.441.309.875.201-3.45.087-2.641.225-.559.294.49-.164-3.939.107-7.361.137-9.612l.068 2.076c-.04-1.241-.039-2.259-.039-3.293l-.169 1.185c.029-1.219.03-2.25.101-2.228-.112-1.255-.283.961-.435-1.53.087-1.625-.092-4.947.133-5.508-.076 5.109.226-.565.263 3.759a56.131 56.131 0 0 1 .003-3.074c.026-.183.047.173.06.507.201-4.89-.255-2.248-.249-7.315.127.644.24-1.174.213-2.001-.003 2.042-.211.977-.308-.897.098-3.249-.074-3.531-.062-5.232l-.047 1.942c-.127-.658-.11-2.283-.15-4.547.099-.194.068 2.056.112 1.248-.072-.812-.074-1.693-.048-2.631l.054-1.45.063-2.012-2.577-.035a53.55 53.55 0 0 0-2.108.026c-1.874-.075-.181-.207-1.827-.257-4.533.142-4.909-.151-9.674-.033 1.373.147 1.613.111-1.742.255l7.833-.103-5.027.214c2.364.002 4.989-.093 6.405-.068-2.396.121-2.149.084-1.018.207-3.234-.221-6.413.129-10.152-.021l.114-.365c-5.621-.164-9.987.188-17.287.096l2.345.063c-.978.145-4.506.02-6.87.079.22-.122-1.258-.167-2.267-.242.123.09-5.343-.009-6.006.235l-3.258-.161c-5.895-.066-6.727.348-12.393.307 1.707-.133-.869-.22 2.927-.315-1.892-.001-3.593-.024-3.623.061-1.105-.077-5.245.165-6.984.05-.798.052-1.059.181-3.182.171-.232-.025.008-.061.008-.061-.008.061-3.325.082-1.469.217-5.827-.381-16.287.028-21.361-.299l-12.85.09c.24-.037.012-.062.721-.049-5.17-.114-3.178.351-9.062.224-3.005-.197 3.124-.107 1.25-.182-.815-.402-7.1.055-11.059-.18l.959-.024C84.465.082 80.107.37 75.163.343c0 0 .24-.036.029-.062-3.382.205-9.782.273-14.539.331 1.48-.158 2.161-.084 1.258-.244-2.133.022.624.257-3.632.302-1.383-.086-4.454-.162-4.861-.332l4.015-.01c-2.057-.22-5.197.008-7.312-.03l.27-.097c-6.152.031-6.237.275-12.85.257l.684.074c-3.614.24-3.03-.136-6.635.043L30.499.33c-2.384.06-8.351.237-12.628.283C20.294.432 25.297.339 28.394.231 26.03.23 20.362.25 19.13.37c.953-.024 2.153-.083 3.093-.046-2.899.192-6.714.286-11.424.282.273-.155-.945-.221-2.828-.253L4.753.324.588.305.566 2.401a444.29 444.29 0 0 1-.039 1.461c-.032.91-.081 1.674-.154 2.186.202 7.223-.086 14.329-.054 22.744.425-2.985.012 2.456.449 1.94.028 1.959.021 2.707-.008 2.881l-.26 5.94C.372 40.962.403 37.69.305 37.87c-.033 4.291-.185 1.8-.301 4.639.156-.581.224 1.493.164 3.94l.202-3.446C.602 49 .003 48.187.233 54.232L.095 52.32c.082 3.102-.002 11.443.349 14.484-.051.549-.17 1.273-.202-.092C.19 74.125.616 83.214.4 88.976l-.107-.562c.031 1.382.201 2.406.093 4.138-.044-.089-.106-.557-.113.084.037.732.187 3.673.125 5.506l-.12-1.566c-.14 7.231.293 11.098.366 17.161-.315-.015-.417 5.675-.468 8.514l-.044-.099c-.039 8.42.26 14.302.384 22.1-.341 4.84-.143 16.396-.335 24.174.058-1.189.246.194.277 1.577-.064 1.825.218 5.046-.07 4.757l.005-.651c-.283 1.376-.207 5.127-.215 8.056l.377.484c-.548 7.662.202 20.075-.29 24.257.095 1.848.093 4.139.188 5.972l-.202-.099c-.052 5.123-.078 7.681-.029 14.013l-.145-1.291c-.013 3.572.583 4.509.595 7.804l-.302.992c.005 6.231-.26 12.538.014 18.696-.044-.102-.132-.285-.144-1.294-.008 2.934-.204 11.346.21 10.282-.27.072-.026 6.428.093 9.794l-.2-.524c.255 2.841.324 2.932.395 6.897-.026.941-.16.825-.108-.425-.105 3.134.188 2.442.082 6.239l-.127-1.415c-.015 3.223.053 2.967.201 4.741.031.793.03 1.899.007 2.979l-.051 1.557-.077 1.691c.645.028 1.106.06 1.282.094l.768-.073c.296-.025.665-.049 1.088-.068a46.661 46.661 0 0 1 2.998-.036c.295.059-.502.096-.903.113 6.216.117 9.243-.201 13.518-.031.089.057.368.086.722.103-4.938-.004-8.915-.014-8.543-.026 0 .159 3.989.187.816.406 3.202-.12 8.677-.38 12.565-.305.189.016.372.03.514.055l-.402.017c.897.016 1.701.002 2.458-.025 1.24.026 2.028.045 3.22.048.46.132 4.574.071 6.563.077-.164-.174 2.44-.146 0-.289.316.012-.376.02-1.699.028-.298.004-.65.007-.847.018l.135-.016-4.944.012c1.571-.088 3.213-.163 5.413-.066 1.021-.112 2.144-.227 2.777-.282 2.722.244 7.968.375 8.699.524 6.073-.097 14.307-.064 18.126-.391 1.727-.042 1.985.094 2.63.145-.997.033-2.182.028-2.722.075 3.453-.084 10.229-.033 11.054-.261 4.352.104-2.446.21 3.534.173l-.808.069c11.763.366 19.124-.582 32.166-.114-.904-.029-1.355-.042-1.54-.08 14.868.207 30.639-.194 45.311.134 4.17.065 4.622-.08 7.167-.191l.904.187 4.351-.215c6.171-.158 10.686.458 18.498.16l-1.008-.126c2.807.023 8.888-.074 8.42.07.287-.023.92-.131 2.016-.065l.086.097 6.892-.167c5.343.071-.836.388 6.961.407 2.899-.038 8.253-.284 7.165-.35-1.17-.005-2.988-.061-3.076-.159l2.651-.051c.48-.289 2.519-.584-3.988-.785l-4.535.177-1.46-.14 3.816-.009c-2.165-.131-3.537-.015-5.074.065-.363-.075-1.001-.127-1.9-.155l-4.452.276c-.539-.113 1.996-.224-.991-.287-2.085.129 2 .254-1.452.338-2.169-.131-1.536-.238-4.082-.126-.357-.074.182-.122 1.191-.154-2.267.089-5.998.038-7.168.19-2.26-.161-7.651.043-7.428-.23-.712.065-3.991.214-6.073.226 3.803-.327-7.792-.02-6.786-.37-2.815.294-10.167.13-15.152.293.279-.023.826-.07 1.266-.055-2.806-.024-3.622-.113-5.425-.169-.36.243-4.73.298-7.086.448-3.439-.234 2.09-.285 1.01-.51.173.196-5.976.196-4.806.36-2.631-.144-2.267-.07-3.622-.271-.461.303-2.449.051-4.631.238-3.806-.15-.98-.285-5.161-.192-1.989-.093 1.73-.201 1.73-.201z" class="cls-1"/></svg>