<svg xmlns="http://www.w3.org/2000/svg" preserveAspectRatio="xMidYMid" width="174.53" height="303" viewBox="0 0 174.53 303"><defs><style>.cls-1{fill:#e2e2e2;fill-rule:evenodd}</style></defs><path d="M99.12 301.039c-3.421-.005-1.607.23-2.333.367-4.083.066-1.889-.175-3.279-.296-2.55.063-4.504.279-6.406.271-.141-.04-.511-.053-.078-.102-2.695.187-8.001.009-11.141.244a2.308 2.308 0 0 1-.41-.058c.509.118.587.238.483.324-1.534.003-2.846.149-3.423-.006.939.005 1.018-.057 1.458-.106l-1.607.067c-1.447-.221 2.194-.076 2.194-.24-3.134.072-6.786.256-9.187.193-.501-.216 5.615-.073 2.411-.266l3.715.083c-2.839-.342 2.257.024-.351-.342-4.889-.063-5.469.111-10.345.048-1.098.119.363.177-.735.298-6.932.216-5.456-.544-10.552-.257-1.32.145-1.831.42-5.46.274l1.238-.245c-4.734-.024-2.703.353-7.66.187.881-.096 3.72-.081 3.004-.11-3.211-.194-2.271.139-4.74.139l-.511-.217-16.172.231c.309-.065 1.265-.133-.041-.199-2.927.044-6.02.048-9.117.027l-4.629-.048-2.28-.033-1.125-.018c-.253-.003-.207-.006-.262-.01l-.107-.009.015-.202.014-.984.029-1.936-.168-2.885c.002-.671.076-1.245.109-.519.064-2.942-.107-.152-.173-1.566-.012-1.674.096-2.212.147-1.15-.143-5.194-.308-14.793-.127-20.264l.05 1.066c.068-4.26-.345-4.808-.188-8.759l.029.758c.073-9.247-.081-19.466.174-26.521-.243-1.342.108-9.153-.231-9.747.168-5.28.228-3.768.341-11.204.016-1.985-.211-2.96-.246-5.416l.176-.06-.185-3.333.211-1.774-.045-2.303c-.01.917-.079 1.95-.13 1.811-.04-1.8-.01-3.992.043-5.746.052-1.753.125-3.068.171-3.112l-.15-8.512c.071.19.095 1.615.141 2.742-.181-4.543.186-.826.021-4.989-.041.559-.106-.301-.141-.396.107-2.075.107-6.798.062-10.294l.122.671c.031-6.312-.058-13.307-.056-20.393-.057 2.541-.268 1.958-.288-.12l.187-.83c-.116-1.342-.071 2.17-.212-.584.021-2.647.212-1.78.273-.26l-.065-3.218c.056-.188.085.567.157.763-.117-1.321.187-5.554-.014-7.459l.055-.181-.072-16.064c-.161-.113-.125-2.369-.256-4.088.052-4.239.178-8.945.165-14.053-.081-3.591-.137-1.05-.233-2.663.147-.264.133-5.366.239-2.72-.024-6.131-.029-7.831-.149-15.584-.06.841-.086 1.787-.137 1.297-.023-1.407.062-3.201.133-3l.015.372c-.22-8.704.429-20.088.122-27.019l.015.388-.159-7.187c.025-3.306.11 1.984.201-.463-.245-7.754.036-12.25-.128-18.634.434-4.942-.03-17.538.246-24.208l-.102.385c-.1-1.724.059-2.085.082-3.356-.079.18-.091 1.87-.147.799l-.031-6.972 7.692.034 8.44.085 16.857.185c4.925.03 2.795-.588 9.003-.317l-1.762.212c9.937-.254 20.32.008 30.048-.207-.58.049-.596.113-1.546.111 1.028.077 2.927.079 4.574.046a72.634 72.634 0 0 0 2.141-.071c.557-.028.91-.061.919-.093 1.515.015.351.114 1.284.177 2.061.091 5.173-.195 6.269-.042.186.024-.579.049-.957.061 1.344-.074 6.259.019 4.972-.158 3.652.084 6.985-.079 9.897.026 1.9-.198 6.251.095 6.854-.184-.262.288 6.401.233 8.71.096-.773.088 2.007.091 1.102.212 2.635-.004 5.049-.057 4.59-.205 4.854.344 9.756-.279 12.489.164 7.826-.155 15.068-.26 22.108-.328-.254.288-7.782.029-7.479.331 6.678-.118 10.53-.366 17.153-.296 1.715.039-.973.124-1.552.174 1.772-.032 3.513-.045 5.224-.05l4.428-.001.011 4.135c.009 1.586.028 3.152.061 4.699-.024-.018-.051-.731-.071-1.404.009 1.302-.038 3.027.08 2.88l-.032-1.269c.171-2.077.357 5.168.447 5.401-.337-2.209-.085 6.522-.51 3.014.022.856.077 1.93.156 1.733-.023 1.271-.069 1.675-.158.386.064 4.66.189 3.005.186 7.228-.057-.016-.079-.868-.146-1.304.111 2.138.222 4.286.174 7.854-.034-.214-.079.2-.078-.865.017 6.129.296 10.447.188 17.171-.247-1.984-.081 2.287-.295 2.643l.064 3.616.104-1.451c-.004 3.167.152 5.965.082 8.688l-.089-2.354.041 5.935.082-3.359c.11 3.205.271-.343.211 3.873-.022-.858-.003 3.167-.129 4.818v-.01c.068 1.566.139 3.178.086 5.52-.068.608-.237-.49-.282-.094.179 1.546.049 7.417.24 9.375-.044-.653-.157-.687-.18-.473l.145 1.298c-.046 1.467-.068 1.682-.158 1.444-.027 4.413.272-1.402.155 3.835-.013-.411-.034-.215-.056-1.071-.062 5.261.092 10.164.021 14.997-.216 1.426-.053-4.223-.235-2.591.039 6.97.258 14.432.208 21.175l.023-1.256c.305.934-.15 5.022-.007 8.433-.022-.835-.169-1.095-.135-.869-.048 4.618.075 9.443.171 16.441l-.078-.867c-.07 2.721-.04 7.168-.076 10.108.078.873.065 2.555.179 1.533-.445 9.065.239 17.292-.133 25.336 0-.962-.068-2.292-.068-1.527l.072 6.851c.133-.542.08-.899.184-2.338.078.868.139 2.801.139 4.499-.088-3.081-.213.027-.287 1.358.041-.223.086.233.127.12-.236 3.579.267.6.108 5.486l-.07-.259c.036 1.829.128 3.515.108 5.486-.153.818-.071-1.946-.198-2.071.009 2.769.291 5.465.138 7.972l-.086-4.045c-.18 2.731-.134 3.047-.163 5.075l.004-.199-.082 4.69.05-1.194c.4 3.466.072 7.058.335 11.727-.249-4.538-.144-.75-.318-1.097-.048 1.192-.102 3.004-.151 2.488.14 2.206-.11 3.684.095 6.799-.056.139-.006 2.361-.146 1.862.044 2.871.097-.678.167-.436.191 4.422-.232 10.396.031 16.758.107 5.486.296 6.5.39 11.592-.089 1.718-.204-1.408-.204-1.408a127.45 127.45 0 0 0-.003 7.47c-.048-.529-.09.016-.153.813.015 2.095.204 1.401.122 4.166-.063-.475-.163-1.084-.225-2.094l.206 7.466c-.097.679-.148-1.542-.211-2.444.043 2.875.088 7.447.242 8.335l.055-1.845c.008 1.049-.132.54-.16-.233-.122-2.463.053-3.552.109-3.692l.036 1.821c.329-1.871-.052-7.314-.033-10.98l.238 1.527-.198-3.76c.062-.799.196-1.347.231.464.118-2.628-.084-2.327.047-4.585.021-.249.032-.136.042.094l-.072-2.568c.051.504.169-.427.134 1.151.138-4.609-.178-7.433.002-9.168l.015.385c-.081-6.395-.175-.618-.381-5.415l.432-3.229-.175-.629c.006-.659.02-1.965.09-1.723-.12-2.455-.077.419-.19-1.007.16-3.175-.074-8.756.205-9.472-.133-1.139-.103 3.038-.196-.353.3-.967-.051-3.919.087-6.82.155.891.072 3.639.211.736-.262-1.75.057-5.649.007-8.096-.208-.115-.087-5.32-.156-9.427.07.26.114-7.727.189-11.546l.035.112c-.21-.74-.171-4.68-.214-7.548.126.112.176.628.232 2.182v-2.697c-.068-.636-.104-1.478-.128-3.227l.157.679c-.008-3.59-.185-7.23-.08-11.848-.146-.26-.409 3.673-.507-1.211.08-.182.215-.361.248.917-.011-.419-.066-1.493-.032-2.337l.133 1.951c.059-2.103-.111-1.1-.099-2.782.113.033.081-1.244.171-1.003.011.43-.047 1.467-.002 2.111.02-1.896.087-4.189.173-4.946-.064.165-.153 0-.167-1.389-.009-3.59.136-1.229.194-3.322-.079-.87.003-3.16-.166-3.22.001-1.051.08-1.245.125-1.651-.074-1.858-.021-8.678-.201-6.584l-.012.477-.007-.304v.015-.015c-.169-6.089.096-12.65.023-18.692l.057.01c-.065-3.607-.039-8.028-.16-10.603 0-1.068.103-2.518.17-2.062-.042-2.757-.106-3.066-.012-7.049.099 2.772.087-.956.072 2.841.049-3.583.14-4.394-.015-8.241.145 1.31.183-2.696.139-4.399l-.103 2.51c-.022-1.914-.009-3.589.004-5.289l.19.919c.233-7.331-.395-13.221-.006-18.801-.133-1.94-.094 3.982-.25 2.247.026-3.372.299-6.886.3-7.942.106-4.618-.279-4.309-.206-9.144-.068.619-.25 1.202-.314-2.409.025-3.376.285-4.149.34-2.018.006.809-.016 1.2-.039 1.165.025 1.09.054 2.521.128 1.185l-.068-.438c.069-1.674.062-6.317.174-5.227-.065-2.549-.112-1.09-.147.799.098-4.328.002-6.762.069-11.217-.038.708-.118 1.361-.117.656.084-6.535-.129-2.878-.159-7.306.104-2.514.248.902.161-3.555.07-2.722.18-.577.236.505-.131-4.06.086-7.587.11-9.906l.055 2.139c-.032-1.279-.031-2.327-.031-3.394l-.136 1.221c.024-1.255.024-2.319.081-2.296-.089-1.293-.227.991-.349-1.576.069-1.674-.074-5.099.107-5.678-.062 5.266.181-.581.21 3.875a74.52 74.52 0 0 1 .004-3.168c.02-.189.037.178.047.522.162-5.039-.204-2.316-.2-7.538.102.663.193-1.21.172-2.063-.003 2.105-.17 1.007-.249-.924.08-3.348-.059-3.639-.049-5.392l-.037 2.001c-.102-.678-.089-2.353-.121-4.687.079-.199.055 2.119.09 1.287a30.681 30.681 0 0 1-.039-2.712l.044-1.494.051-2.074-2.071-.036a34.63 34.63 0 0 0-1.694.027c-1.505-.077-.145-.213-1.467-.265-3.642.147-3.944-.155-7.772-.034 1.103.152 1.296.115-1.4.263L166 .175l-4.039.222c1.9.002 4.008-.096 5.146-.07-1.924.124-1.726.086-.817.213-2.599-.228-5.153.133-8.157-.021l.092-.377c-4.516-.169-8.024.193-13.888.098l1.884.066c-.786.15-3.62.021-5.52.081.177-.125-1.01-.172-1.821-.249.099.093-4.292-.009-4.825.242l-2.618-.166c-4.735-.068-5.404.359-9.956.316 1.371-.137-.698-.226 2.352-.324-1.52-.001-2.886-.024-2.91.063-.888-.078-4.215.17-5.612.051-.641.054-.85.187-2.556.176-.187-.026.006-.062.006-.062-.006.062-2.671.085-1.18.224C106.9.264 98.497.687 94.421.349L84.097.441c.193-.038.009-.063.579-.05-4.154-.117-2.554.362-7.28.231-2.415-.203 2.51-.11 1.004-.187-.655-.415-5.704.057-8.885-.186l.77-.024c-2.43-.141-5.932.157-9.903.128 0 0 .192-.037.023-.063-2.717.211-7.859.281-11.681.34C49.913.468 50.46.544 49.735.379c-1.713.023.501.265-2.918.311-1.111-.089-3.578-.166-3.905-.342l3.225-.01c-1.652-.227-4.175.008-5.874-.031l.217-.1c-4.943.032-5.011.283-10.324.265l.549.076c-2.902.248-2.433-.139-5.329.044L24.5.34c-1.916.061-6.71.244-10.146.291C16.301.445 20.32.349 22.808.238c-1.899-.002-6.453.019-7.442.143.765-.024 1.729-.086 2.484-.047-2.329.198-5.394.295-9.178.291.22-.16-.759-.228-2.271-.261L3.815.334.469.315l-.018 2.16L.42 3.98C.394 4.918.355 5.706.296 6.233.458 13.677.227 21 .253 29.673c.342-3.076.01 2.532.36 1.999.023 2.02.017 2.791-.006 2.971l-.209 6.121c-.102 1.451-.078-1.92-.156-1.735C.215 43.451.093 40.885 0 43.811c.125-.6.18 1.538.131 4.059l.162-3.551C.48 50.5-.001 49.662.184 55.892l-.111-1.97c.065 3.197-.002 11.793.28 14.927-.04.565-.137 1.312-.162-.094-.042 7.639.3 17.006.127 22.944l-.086-.579c.024 1.425.161 2.481.075 4.266-.036-.093-.086-.574-.091.086.03.754.15 3.786.1 5.675L.22 99.532c-.113 7.453.235 11.438.294 17.687-.253-.016-.335 5.847-.376 8.774l-.036-.102c-.031 8.678.21 14.74.309 22.777-.274 4.987-.115 16.897-.269 24.914.046-1.225.197.2.223 1.624-.052 1.882.175 5.201-.057 4.903l.005-.67c-.228 1.417-.167 5.284-.173 8.303l.303.497c-.441 7.897.162 20.69-.233 25.001.075 1.904.075 4.266.15 6.155l-.162-.103c-.042 5.28-.062 7.917-.023 14.442l-.117-1.331c-.01 3.682.469 4.648.478 8.045l-.242 1.021c.004 6.422-.209 12.922.011 19.268-.036-.105-.106-.292-.115-1.333C.183 262.427.025 271.098.358 270c-.217.075-.021 6.626.074 10.095l-.159-.54c.204 2.928.26 3.021.316 7.108-.021.969-.128.85-.087-.438-.083 3.229.152 2.516.066 6.43l-.102-1.458c-.012 3.322.043 3.057.162 4.885.025.817.024 1.957.006 3.07l-.041 1.606-.062 1.742c.518.029.889.062 1.03.097l.617-.076c.237-.026.535-.05.874-.069a29.155 29.155 0 0 1 2.408-.037c.238.06-.403.098-.725.116 4.994.121 7.426-.207 10.86-.032.072.059.295.089.58.106-3.967-.005-7.162-.014-6.863-.027 0 .164 3.204.193.655.419 2.573-.123 6.971-.392 10.095-.314.151.015.299.031.413.056l-.323.018c.721.017 1.366.002 1.974-.025.997.026 1.63.046 2.587.049.37.135 3.675.073 5.273.079-.132-.179 1.96-.151 0-.298.254.012-.302.021-1.364.028-.241.005-.523.008-.682.019l.109-.016-3.972.012c1.263-.091 2.582-.168 4.349-.068.82-.116 1.722-.234 2.231-.29 2.187.251 6.402.386 6.988.54 4.88-.101 11.495-.066 14.563-.403 1.387-.043 1.595.096 2.113.149-.801.034-1.754.029-2.187.078 2.774-.088 8.218-.034 8.88-.27 3.496.107-1.965.217 2.839.179l-.648.071c9.45.376 15.364-.6 25.841-.118-.726-.029-1.089-.042-1.237-.082 11.945.213 24.615-.2 36.402.138 3.35.067 3.713-.083 5.758-.197l.726.192 3.496-.221c4.957-.163 8.585.472 14.861.164l-.809-.129c2.254.024 7.14-.077 6.763.073.231-.024.74-.136 1.621-.067l.068.1 5.537-.173c4.293.073-.671.401 5.593.42 2.328-.039 6.63-.294 5.756-.361-.94-.005-2.401-.063-2.472-.164l2.131-.052c.385-.298 2.023-.602-3.204-.809l-3.643.182-1.174-.145 3.066-.009c-1.739-.135-2.842-.016-4.076.067-.293-.077-.804-.131-1.527-.159l-3.576.284c-.433-.117 1.604-.23-.796-.295-1.676.132 1.606.261-1.167.347-1.743-.135-1.234-.245-3.279-.129-.288-.076.146-.126.956-.159-1.821.092-4.818.039-5.758.196-1.816-.166-6.147.044-5.968-.237-.572.067-3.206.22-4.879.233 3.056-.337-6.26-.021-5.452-.382-2.261.303-8.168.134-12.173.303.224-.024.664-.073 1.017-.058-2.254-.025-2.909-.116-4.358-.173-.289.25-3.8.307-5.692.461-2.763-.241 1.678-.294.81-.525.139.202-4.801.202-3.861.371-2.113-.149-1.821-.072-2.909-.28-.371.313-1.968.053-3.72.246-3.058-.155-.788-.294-4.147-.199-1.598-.095 1.39-.206 1.39-.206z" class="cls-1"/></svg>