<svg xmlns="http://www.w3.org/2000/svg" preserveAspectRatio="xMidYMid" width="99" height="3" viewBox="0 0 99 3"><defs><style>.cls-1{fill:#d85486;fill-rule:evenodd}</style></defs><path d="M98.987 2.111l-.223.082.102-.306c.143-.036.173.145.121.224zm-.606-.187a.185.185 0 0 0-.227-.211c-.18.35-.22.228-.387.521-.11-.281.085-.541.254-.689-.012.056-.064.136-.011.203.248-.195.484-.186.671.051-.077.192-.249.046-.3.125zm-.927.321l.154-.066c-.035.075-.1.066-.154.066zm-.147.061l.074-.031a.088.088 0 0 0-.008.042l-.066-.011zm.147-.061l-.073.03c.01-.028.039-.03.073-.03zm-.493-.375c-.257.081-.502.249-.749.332.101-.101.162-.261.21-.362-.278-.133-.208.172-.418.196-.08-.102-.135-.169-.082-.248-.262.104-.471.129-.749-.004 0 0 .313-.184.141-.329-.511.152-.612.456-1.163.63-.638.422-1.237-.259-1.681.049-.024.113.332.199.044.269.05-.226-.173-.144-.187-.234-.312.33-.46-.074-.681.152.051-.079-.131-.166-.25-.244.035-.28-.345-.111.11-.511-.468.422-.829-.104-1.176.54l.119.079-.47-.132.02.007c-.203-.047-.235.027-.509-.263.118-.068.288-.069.406-.138-.252-.246-.522.208-.8.222.012-.204.29-.072.208-.319-.198-.032-.367.116-.551.174l.026-.112c-.49-.256-.191.553-.55.173.011.067-.034.139-.012.205-.133-.12-.445-.321-.136-.462a.592.592 0 0 0-.451.224c.144.166.18.082.234.296l-.687.116c-.077-.001.057-.11.153-.111-.807-.598-1.632.504-2.541-.213.102.184-.066.163-.154.288-.295-.057-.741-.009-1.014-.122l.087-.125c-.702.154-1.186.353-1.649.274-.023.055.003-.181.087-.217-.342.231-.752-.502-.846-.011l.126.038c-.676-.082-1.425.271-2.124.334-.163-.293.403-.03.26-.378-.485-.115-.976.132-1.504.034.086-.036.066-.071.107-.09-.525-.188.058.292-.384.249.023-.144.002-.18-.145-.255l-.13.234c-.022-.037-.019-.218.047-.29-.196.307-.785.099-.94.387-.04-.073.07-.345.009-.455-.235-.085-.397.03-.554.14l.001-.001c-.165-.203-.569-.172-.483-.208-.423-.096-.067.163-.388.341l.337.131-.596.065.236-.142c-.273-.113-.554.138-.871.132l.145.168-.362.103c-.036-.345-.464-.078-.265-.476-.675-.173-1.108.275-1.723.303.107.002.066-.07.087-.126-.358-.077-.573.102-.788.28.044-.107.13-.143.131-.234-.424-.005-.258.197-.725.3.129-.145.089-.218-.039-.255.02.127-.088.216-.174.251.352-.685-.523-.278-.302-.822-.023.145-.75.445-.542.72l.128-.051c.014.189-.159.114-.289.128.067-.032.139-.074.141-.113-.663.227-1.358.017-2.102.189.065-.071.365-.195.173-.252-.738-.101-1.168.257-1.913.429-.034-.437.806-.062.834-.479-.785.098-1.593.249-2.466.474-.305-.641-.852.262-1.393-.238.051.214-.218.292-.512.298.101-.175-.209-.18-.123-.306-.258.197-1.001.278-.972-.14-.067.404-.552-.019-.764.266-.325-.151-.697.085-1.104-.037.132.236-.324.14-.513.208.04-.019.08-.043.065-.069-.122-.22-.47.193-.699.063-.105-.092.025-.235-.144-.256-.004.181-.622.392-.851.17.106.001.107-.09.172-.161-1.085.311-2.243-.067-3.352.298l.197-.305c-.693-.393-.455.502-1.004.458-1.502-.148-3.061-.587-4.526-.389-.107.09.062.11.08.238-.127-.038-.164-.293-.336-.132l.038.165c-.669-.446-1.932.301-2.428-.397-.64.263-1.091-.189-1.869.206-.246-.147.285-.284-.047-.325l-.72.257c-.698.432-1.814-.569-2.672-.22l.038-.025c.02-.114-.16-.252-.301-.213-.049.08.045.123.13.22-.778.192-.949.201-1.563.239.265-.17-.247-.148-.273-.385-.162.155.093.246-.267.375-.513.022-.985-.182-1.41-.265-.172.21-.399.152-.41.412-.579.015-.901.119-1.611.117l-.018-.09c-.192.325-.616-.165-.749.022.02-.114.096-.161.077-.251l-.323.104c.153-.098.24-.406-.026-.44-.276.227.076.155-.059.341l-.083-.301c-.208.033-.267.373-.012.464-.711-.003-1.412.141-2.045.091l.067-.196c-.351.072-.824.071-1.033-.101-.009.057-.095.162-.039.227-.387.247-.097-.241-.414-.083.089-.048.174-.091.188-.178l-.853.241c-.009-.146-.528-.473-.889-.344-.014.082.09.193.182.21l-.231.073-.178-.341-.335.299-.006-.285c-.246.057-.344.422-.543.397-.746-.181-.594-.278-1.124-.549-.059.545-.843-.02-.978.371-.707-.41-1.732-.161-2.66-.279l.076-.048c-.396-.253-.451.414-.878.303l.107-.08c-.549-.291-1.512-.025-2.033.205.107-.082.053-.256-.115-.238-.142.106.138.382-.157.279.072-.052.015-.173-.052-.175l-.29.271c-.757-.186-1.648-.382-2.433-.225-.146-.096-.039-.194-.005-.288-.623.058-1.242.285-1.804.334l-.057-.314c-.275 0-.171.481-.529.201-.08-.042.237-.02.335-.159-.553-.239-.326.306-.854.271l.138-.355c-.405-.21-.462.187-.609.396-.569.418-.404-.685-1.177-.371-.123.175.04.258-.082.432-.544-.091-.609.16-1.154.069-.291-.53.277 0-.039-.495l.414.119c-.357-.278.325-.07.269-.384-.268-.091-.675.175-1.025.279 0-.237.406-.027.245-.348l-.179.097c.049-.07.058-.16.162-.153-.064-.224-.21-.014-.381-.008-.012.124-.003.297.053.469a.196.196 0 0 0-.045-.085c-.351.341-.942.083-1.243.354.048-.07.007-.091-.009-.147-.212-.013-.43.3-.714.39-.155-.174.089-.523-.366-.426-.081.197.121.538-.26.531 0 0 .333-.161.155-.3-.375.138-.122-.063-.463-.286-.195.278-.373-.098-.415.355-.121-.3-.089-.189-.324-.405.104.244-.447.244-.431.537-.097-.336.399-.411.09-.761-.211.224-.602.307-.635.669-.157-.081-.232-.208-.468-.248.036-.002.074-.057.096-.087-.447.243-1.106 0-1.358.438.09-.523-.949-.064-.608-.551-.187.017-.481.239-.545.336.02-.407-.463-.103-.665-.344-.105.229-.44.152-.643.285.091-.049.139-.12.107-.23-.228.167-.172.007-.366-.188-.309.125.057.312-.13.503-.268-.093-.04-.259-.089-.427l-.399.41c-.08-.04-.138-.118-.17-.229-.138.119-.261.293-.455.097l.342-.013-.131-.21-.406.264c-.583-.301-.4-.742-.358-1.172l.238-.076c-.008-.146-.171-.23-.276-.238C-.07 1.004.41.635.67.579c.698.028.145.502.623.608l.618-.25.008.146c.098.098.155-.063.18-.098-.042.217.504.07.755.105l-.09-.187c.7-.446 1.104.474 1.657.239l.39-.322.081.279c.228-.166.269-.383.643-.285 1.314.489 2.728-.109 4.06.2-.011-.04-.036-.062-.077-.087 1.131.616 1.786-.739 2.822-.204l-.072.104c.536-.055-.074.104.316.259.074-.342.682-.265.991-.39-.048.07-.155.063-.244.112.058.077.081.279.236.216.342-.488 1.08-.438 1.624-.584.066.223.536.419.78.782.056-.081.157-.252.249-.42.197.145.344.033.485-.099-.174.005-.326.01-.443.018a.485.485 0 0 1 .012-.023c-.018.015-.049.019-.076.027-.119.011-.181.023-.152.042-.219-.214.014-.173 0-.432.178.009.547-.081.588.115.107.003.177.032.288.071.068-.04.14-.062.221-.038l-.036.027c.012.036.029.059.046.082.348.111.839-.278 1.126-.456-.285.327.073.369.073.606.033-.018-.323-.033-.766-.039.032.026.057.069.065.154.383.253.654-.222 1.211-.047-.036.027-.107.082-.08.17.196.067.378-.123.423-.265.049.233.472.401.681.298.184-.192.157-.28.49-.26l-.146.164c.393.138.321-.241.645-.107-.129-.066-.141.107-.044.141.41-.092.42-.182.713-.51l-.054.257c.348-.154 1.005-.469 1.013-.12-.11-.536.759-.282 1.063-.271-.105.015-.124.128-.134.186.636-.355 1.288-.012 1.932-.018l.103.39c.341-.015.437-.786.807-.769l-.134.187c.655-.062.919-.029 1.449.037l-.01.262c.189-.122.426-.121.617-.243.432.636 1.716-.334 2.508.375l.05-.488c.302.01.69-.087.832.279l-.067-.007c-.03.373.303.008.492.091.143-.041.286-.284.163-.358.804.248 1.999-.009 2.499.432.806-.159 1.414-.547 2.285-.496l-.011.057c.294.066.882.198.881.605.626-.095 1.026-.654 1.774-.473l-.162.155c.189.081.493-.114.569-.161.066.007.018.088.008.145.18.139.286-.08.428-.12l-.058.138c.596.28 1.535-.272 2.302-.204-.141.041-.066.196-.01.261.315-.454 1.177-.345 1.498-.45l-.198.178c.625-.298.541.477 1.161.176l-.356-.261c.252.078.467-.01.407-.212.293.15.036.347.479.39.019.126-.319.087-.174.251l.614.338V.978l.043.026-.041-.023c.019.035.097.044.296.009-.053-.565.509-.031.201-.581.87-.042 1.604.331 2.351.07.306.549 1.481.02 1.406.727.422.006.764-.135 1.024-.421-.084-.057-.192.033-.277.068.11-.18.618-.21.83-.207-.277.161-.726.299-.943.569.383-.068.918-.333 1.132-.421l.098.365c.323-.267.27.295.594-.065l-.061-.109c.593.026.6-.337 1.152-.384l-.025.144c.19.057.471-.284.656.046l-.36.014c.036.255.311.367.436.495.381-.066.134-.415.325-.45.081.239.02.129-.113.363.426-.085 1-.186 1.303-.492.019.038-.002.091-.002.091.443.043.833-.389 1.104-.185l-.086.035c.355.351.918-.332.992.269.167.112-.382-.024-.112.271.527.189.348-.504.812-.334-.064-.019-.043.017-.065.072a10.24 10.24 0 0 0 1.152-.133c.454.488 1.392-.122 1.914.447-.166-.202.131-.234.132-.324 0 0-.022.053-.001.09.19.015.214-.176.285-.257.156.174.527-.186.626-.072.003-.127.155-.093.325-.091-.341.142-.11.271-.263.469.508.062.583-.556 1.111-.458l.292.241c.059-.364.549-.217.538-.352.091.113.223.18.203.362.212-.088.528.099.616-.118L65.5.649c.654.137 1.045-.386 1.549-.143l-.01.546c.335.223.62-.3.91.031-.102-.183-.124-.129.091-.308-.127-.038-.362.104-.574.101l.45-.321-.702.155c.301-.215.28-.161.156-.381.428-.175.461.262.868.049.147.075-.005.273.163.383.363-.194.69.393.95.104.084.057-.149.017-.129.145.234-.052.402-.03.47-.195l-.201-.059c.176.015.206-.208.541-.08.194-.126.304-.397.093-.4.086-.035.273.112.207.277.524.006.251-.583.756-.323-.034.017-.071.044-.052.077a.566.566 0 0 0 .223.026c-.254.093.187.408-.294.318.058.291.401.061.569.172.258-.197.029-.418.159-.562-.003.091.104.093.23.131L71.8.173c.107 0 .212.002.341-.051l-.215.088c.233.039.586.39.994.178-.109.09-.324.268-.051.381.447-.14.104.092.357.259.444-.048.077-.392.732-.256.071.001.006-.128-.065-.188.447.106.691-.048 1.125.111-.19-.057-.336-.132-.08-.237-.11.18.356.168.524.28l.044-.109c.134.118-.01.166-.119.205.004-.037-.036-.072-.117-.062-.214.087-.136.507.203.548.362-.104.303-.396.241-.506.485.117.454-.503.918-.333.105.001.458.443.796.484.174-.252-.42-.188-.225-.403.559.626 1.15-.384 1.886-.011l-.093.308c.171.02.339.041.531.006l-.252-.166c.171-.07.573-.01.441.224.386-.25.468-.103.827-.025-.381-.024-.007-.042-.285.117.399.151.43.048.707-.02-.046.108.1.274.207.275.258-.196.702-.154 1.063-.258l-.001.091c.607-.117 1.265.309 1.875.038.011-.006.022-.006.031-.012l-.048-.019c-.21-.29.474-.204.661-.325.04.074.06.201.165.203.006-.273.236-.142.323-.269.21.094-.027.327.333.314.14-.024.156-.166.14-.27.076.139.306.247.496.28-.065.071-.169-.022-.212-.004-.024.145.104.092.101.275.168.02.068-.254.279-.16l-.196.215c.085.055.192-.034.234-.051-.128.052-.11.271-.092.399.49-.158.096-.581.122-.817.463.169.828-.115 1.188-.129l-.068.253c.176-.039.26-.096.324-.205l.27-.001c-.156.091-.207.171-.219.374.288-.07.683-.006.758-.346l-.012.057c.383.121 1.185.192 1.159.306.411-.112.934.083.945-.252.245-.081.637.433.812.011.291.223.016.091-.074.34.291.222.587-.344.684.139.341-.149-.079-.1.036-.314.072.449.631.072.95.329.143-.182-.145-.112.101-.305-.024.113.107.134.173.145l.063-.283.324.696c.481-.331-.099-.483.543-.614l-.039.025c.174.291.458-.219.92.002-.158-.055-.065.135-.115.216l.257-.114c-.023.015-.034.033-.009.067.226.211.196-.115.46.074-.182.058-.127.273-.047.373l.377-.319-.153.384c.368.031.914-.583 1.101-.054l-.182.058c.014.09.123.372.37.177.061-.036.104-.182.069-.237l.139.066c-.089.249-.547.321-.836.391.091-.102.314-.183.246-.34zM16.411.385a.377.377 0 0 0-.047.129c.004-.01.011-.021.014-.031.086-.018.151-.027.207-.031-.016-.054-.056-.104-.174-.067zm.835 1.803a3.379 3.379 0 0 1-.184.02l.184-.014v-.006zm.502-.191c-.076-.005-.104.088-.078.177.12-.002.234 0 .325.011-.112-.076-.288-.128-.247-.188zM16.22.802a.517.517 0 0 1-.071-.058c.022-.002.032-.013.049-.019a1.22 1.22 0 0 1 .064-.004l-.042.081zm79.873 1.432a1.05 1.05 0 0 0 .119-.032.295.295 0 0 1-.127.08.4.4 0 0 0 .008-.048zm-.204.017c.04.003.081 0 .12-.003a.23.23 0 0 1-.12.003zm.195-.115c.018.023.016.06.009.098a.566.566 0 0 1-.084.014c.039-.014.06-.046.075-.112zm-4.691-.06l.003.001c-.005.032-.01.066-.027.111l.024-.112zm-1.394-.016c.064.015.143.04.252.092l-.252-.092zm-1.782-.058c.029.026.052.049.054.066a.13.13 0 0 1-.054-.066zM75.86 2.01c.072-.03.139-.076.208-.123-.003.148-.093.142-.208.123zm-.302-.005c.096-.039.207-.013.302.005a.362.362 0 0 1-.302-.005zm-6.025.501a.152.152 0 0 1 .053-.012c-.093.042-.177.062-.053.012zm-7.23.296h.045l-.001.005-.044-.005zm-.4-.038l.4.038c-.143 0-.288-.013-.4-.038zm-1.461-.075c.011-.029.03-.046.047-.067a.572.572 0 0 1 .225.18l-.272-.113zm-29.99-.033zm-1.372-.071l.092-.031c-.024.029-.057.037-.092.031zm-.809.089l.065-.058.001.066-.066-.008zm-24.843.042c-.022-.002-.017-.021 0-.047-.001.016.003.028 0 .047zM.076 1.269c0 .049-.005.097-.011.146l-.047.014.058-.16zM46.144.422c.352.151-.074.454-.034.556-.426-.259.317-.325.034-.556zm13.868.371a1.9 1.9 0 0 0-.08.014c-.016-.018-.034-.033-.047-.053l.127.039zm2.342-.061c-.041-.009-.069.006-.092.031a.134.134 0 0 1-.026-.031c.058-.024.087-.014.118 0zM64.891.5a.334.334 0 0 1-.064-.114c.048.055.062.087.064.114zm4.6.256a.318.318 0 0 1-.115-.035l.115.035zM71.1.235L71.088.23c.043-.02.084-.025.012.005zm.159.098a.375.375 0 0 1 .095-.021.336.336 0 0 1-.095.021zm2.634.251c-.029-.007-.056-.011-.088-.021.021-.023.054-.008.088.021zm1.494.25c-.003.028-.031.059-.097.066-.015-.026.036-.045.097-.066zm8.689.27l.016.006c.007.01.007.018.017.031a.1.1 0 0 0-.033-.037zm-.09-.036c-.114-.023-.249.003-.233-.096l.233.096zm.09.036l-.09-.036a.177.177 0 0 1 .09.036zm1.638-.341a.182.182 0 0 1-.027-.092c.011.02.021.054.027.092zm2.234-.068a.758.758 0 0 1-.058.124l-.071.001.129-.125zm2.813.078a.616.616 0 0 1 .03.184c-.058.02-.107.071-.145.178.026-.114.049-.374.115-.362zm6.651.98l-.046-.022a.043.043 0 0 1 .046.022zm-4.308-.629l-.462-.075c.605.041-.097-.483.485-.184-.21.024-.104.159-.023.259zM91.22.701c-.013.057.238.156-.01.203-.185-.089-.147-.111.01-.203zM80.886.666l-.025.237c.023-.145-.166-.203.025-.237zM77.478.493l.32-.086-.084.034-.236.052zM60.333.524c.215-.088.188.239.058.291l-.058-.291zm-7.926.201c.13-.143.342-.049.423.096-.086.037-.254-.076-.423-.096zM30.194.33l.284-.081-.151.098-.133-.017zM11.089 2.591c-.448.017-.078-.049-.117-.234.027.08.062.16.117.234zm67.98-.32l-.186-.146.274-.07-.088.216zm16.404.01l-.018.075c-.183.059-.381-.121-.513-.142.125-.159.444.207.531.067zm0 0l.02-.095a.225.225 0 0 1-.02.095z" class="cls-1"/></svg>