<?xml version="1.0" encoding="UTF-8"?>
<svg width="24px" height="31px" viewBox="0 0 24 31" version="1.1" xmlns="http://www.w3.org/2000/svg" xmlns:xlink="http://www.w3.org/1999/xlink">
    <!-- Generator: sketchtool 63.1 (101010) - https://sketch.com -->
    <title>832E2E7B-38DF-487C-9E13-063A5C8D3BD6</title>
    <desc>Created with sketchtool.</desc>
    <defs>
        <ellipse id="path-1" cx="12" cy="19" rx="8" ry="6"></ellipse>
        <filter x="-43.8%" y="-41.7%" width="187.5%" height="216.7%" filterUnits="objectBoundingBox" id="filter-2">
            <feOffset dx="0" dy="2" in="SourceAlpha" result="shadowOffsetOuter1"></feOffset>
            <feGaussianBlur stdDeviation="2" in="shadowOffsetOuter1" result="shadowBlurOuter1"></feGaussianBlur>
            <feColorMatrix values="0 0 0 0 0   0 0 0 0 0   0 0 0 0 0  0 0 0 0.5 0" type="matrix" in="shadowBlurOuter1"></feColorMatrix>
        </filter>
    </defs>
    <g id="Page-1" stroke="none" stroke-width="1" fill="none" fill-rule="evenodd">
        <g id="Contact-Us" transform="translate(-270.000000, -1075.000000)">
            <g id="marker" transform="translate(270.000000, 1075.000000)">
                <g id="shadow" fill="black" fill-opacity="1">
                    <use filter="url(#filter-2)" xlink:href="#path-1"></use>
                </g>
                <path d="M0,9.8 C0,13.0851821 2.7139312,17.2681445 4.70263672,20.6704102 C7.16329963,24.8800978 9,28 9,28 C9,28 10.8510619,25.1015331 13.3762378,20.6704102 C15.253644,17.3759792 18,12.9342824 18,9.8 C18,4.389 13.9692857,0 9,0 C4.03071429,0 0,4.389 0,9.8 Z M9,12.1916667 C7.22571429,12.1916667 5.78571429,10.7543333 5.78571429,8.98333333 C5.78571429,7.21233333 7.22571429,5.775 9,5.775 C10.7742857,5.775 12.2142857,7.21233333 12.2142857,8.98333333 C12.2142857,10.7543333 10.7742857,12.1916667 9,12.1916667 L9,12.1916667 Z" id="Shape" fill="#38CCA9"></path>
            </g>
        </g>
    </g>
</svg>